<?xml version="1.0" encoding="UTF-8" standalone="no"?>
<svg
   xmlns:dc="http://purl.org/dc/elements/1.1/"
   xmlns:cc="http://creativecommons.org/ns#"
   xmlns:rdf="http://www.w3.org/1999/02/22-rdf-syntax-ns#"
   xmlns:svg="http://www.w3.org/2000/svg"
   xmlns="http://www.w3.org/2000/svg"
   xmlns:sodipodi="http://sodipodi.sourceforge.net/DTD/sodipodi-0.dtd"
   xmlns:inkscape="http://www.inkscape.org/namespaces/inkscape"
   viewBox="0 0 321 140"
   enable-background="new 0 0 283.5 90.9"
   id="svg2"
   version="1.1"
   inkscape:version="0.91 r13725"
   sodipodi:docname="logo.svg"
   width="321"
   height="140">
  <metadata
     id="metadata12">
    <rdf:RDF>
      <cc:Work
         rdf:about="">
        <dc:format>image/svg+xml</dc:format>
        <dc:type
           rdf:resource="http://purl.org/dc/dcmitype/StillImage" />
        <dc:title></dc:title>
      </cc:Work>
    </rdf:RDF>
  </metadata>
  <defs
     id="defs10" />
  <sodipodi:namedview
     pagecolor="#ffffff"
     bordercolor="#666666"
     borderopacity="1"
     objecttolerance="10"
     gridtolerance="10"
     guidetolerance="10"
     inkscape:pageopacity="0"
     inkscape:pageshadow="2"
     inkscape:window-width="1920"
     inkscape:window-height="1176"
     id="namedview8"
     showgrid="false"
     inkscape:zoom="2.3985891"
     inkscape:cx="217.55795"
     inkscape:cy="15.608518"
     inkscape:window-x="0"
     inkscape:window-y="24"
     inkscape:window-maximized="1"
     inkscape:current-layer="svg2"
     fit-margin-top="0"
     fit-margin-left="0"
     fit-margin-right="0"
     fit-margin-bottom="0" />
  <rect
     style="fill:#2c323d;fill-opacity:1;stroke-width:3;stroke-miterlimit:4;stroke-dasharray:none"
     id="rect4386"
     width="321"
     height="140"
     x="0"
     y="0" />
  <g
     id="g4"
     style="fill:#006da4"
     transform="translate(0.00306892,49.096933)">
    <path
       d="m 302.14847,12.553067 c -0.2,0 -0.4,0.1 -0.5,0.1 -0.2,0 -0.3,0.1 -0.5,0.1 l -0.9,0 c -0.9,0 -1.7,-0.1 -2.4,-0.4 -0.7,-0.3 -1.2,-0.7 -1.6,-1.2 -0.4,-0.5 -0.7,-1.3 -0.9,-2.2 -0.2,-0.9 -0.3,-2.1 -0.3,-3.5 l 0,-9 -2.7,0 0,-0.2 0.6,-2 0,-0.1 2,0 0,-4.3 0.1,0 2,-1.2 0.2,-0.1 0,5.6 4.7,0 0,2.3 -4.7,0 0,9.4 c 0,1 0.1,1.8 0.2,2.4 0.1,0.6 0.3,1.1 0.5,1.4 0.2,0.3 0.5,0.5 0.9,0.7 0.4,0.2 0.9,0.2 1.4,0.2 l 0.8,0 c 0.2,0 0.3,0 0.5,-0.1 0.2,0 0.3,-0.1 0.5,-0.1 l 0.2,0 0,2.1 -0.1,0.1 z m -11.9,-2.1 -1.8,1.2 c -0.6,0.3 -1.2,0.6 -1.8,0.8 -0.6,0.2 -1.2,0.4 -1.8,0.5 -0.6,0.1 -1.2,0.2 -1.9,0.2 -1.4,0 -2.7,-0.2 -3.8,-0.7 -1.2,-0.5 -2.2,-1.2 -3.1,-2.1 -0.9,-0.9 -1.6,-2 -2.1,-3.1 -0.5,-1.1 -0.7,-2.4 -0.7,-3.8 0,-1.4 0.2,-2.6 0.7,-3.8 0.5,-1.1 1.2,-2.2 2.1,-3.1 0.9,-0.9 2,-1.6 3.1,-2 1.2,-0.5 2.4,-0.7 3.8,-0.7 0.9,0 1.7,0.1 2.5,0.3 0.8,0.2 1.5,0.5 2.1,0.9 0.7,0.4 1.2,0.8 1.8,1.4 0.5,0.5 1,1.2 1.3,1.9 l 0.1,0.1 -0.1,0.1 -14.1,8.3 c 0.3,0.6 0.7,1.1 1.1,1.6 0.5,0.5 1,0.9 1.5,1.3 0.6,0.3 1.2,0.6 1.8,0.8 0.6,0.2 1.3,0.3 2,0.3 0.6,0 1.1,-0.1 1.7,-0.2 0.6,-0.1 1.1,-0.3 1.7,-0.5 0.6,-0.2 1.2,-0.6 1.8,-0.9 0.6,-0.4 1.3,-0.9 2,-1.4 l 0.2,-0.2 0,2.9 -0.1,-0.1 z m -14.5,-5.7 11.6,-6.9 c -0.2,-0.3 -0.5,-0.5 -0.7,-0.7 -0.3,-0.2 -0.7,-0.4 -1,-0.6 -0.4,-0.2 -0.8,-0.3 -1.2,-0.4 -0.4,-0.1 -0.9,-0.1 -1.4,-0.1 -1,0 -2,0.2 -2.8,0.5 -0.9,0.4 -1.7,0.9 -2.4,1.6 -0.7,0.7 -1.2,1.5 -1.6,2.3 -0.4,0.9 -0.5,1.8 -0.5,2.8 l 0,1.5 z m -4.7,7.8 c -0.2,0 -0.4,0.1 -0.5,0.1 -0.2,0 -0.3,0.1 -0.5,0.1 l -0.9,0 c -0.9,0 -1.7,-0.1 -2.4,-0.4 -0.7,-0.3 -1.2,-0.7 -1.6,-1.2 -0.4,-0.5 -0.7,-1.3 -0.9,-2.2 -0.2,-0.9 -0.3,-2.1 -0.3,-3.5 l 0,-9 -2.7,0 0,-0.2 0.6,-2 0,-0.1 2,0 0,-4.3 0.1,0 2,-1.2 0.2,-0.1 0,5.6 4.7,0 0,2.3 -4.7,0 0,9.4 c 0,1 0.1,1.8 0.2,2.4 0.1,0.6 0.3,1.1 0.5,1.4 0.2,0.3 0.5,0.5 0.9,0.7 0.4,0.2 0.9,0.2 1.4,0.2 l 0.8,0 c 0.2,0 0.3,0 0.5,-0.1 0.2,0 0.3,-0.1 0.5,-0.1 l 0.2,0 0,2.1 -0.1,0.1 z m -22.2,6.7 -2,-0.6 -0.1,0 0.1,-0.1 4.6,-9.1 -8.2,-14.8 -0.1,-0.1 0.2,0 2,-0.6 0.1,0 0,0.1 7.2,13 6.4,-13 0,-0.1 0.1,0 1.9,0.5 0.1,0 -0.1,0.1 -12.2,24.6 0,0.1 z m -19.3,-9.2 1.5,-1.5 0.1,-0.1 0.1,0.1 c 0.3,0.4 0.7,0.7 1,1 0.4,0.3 0.7,0.5 1.1,0.7 0.4,0.2 0.8,0.3 1.2,0.4 0.4,0.1 0.8,0.1 1.3,0.1 0.5,0 1,-0.1 1.5,-0.2 0.4,-0.1 0.8,-0.4 1.2,-0.7 0.3,-0.3 0.6,-0.6 0.8,-1 0.2,-0.4 0.3,-0.8 0.3,-1.3 0,-0.4 -0.1,-0.8 -0.2,-1.1 -0.1,-0.3 -0.3,-0.6 -0.6,-0.9 -0.3,-0.2 -0.6,-0.5 -1.1,-0.7 -0.5,-0.2 -1,-0.4 -1.7,-0.6 -1.1,-0.3 -2.1,-0.6 -2.9,-0.9 -0.8,-0.3 -1.4,-0.7 -1.8,-1.1 -0.4,-0.4 -0.8,-0.9 -1,-1.4 -0.2,-0.6 -0.3,-1.2 -0.3,-1.9 0,-0.7 0.1,-1.4 0.4,-2 0.3,-0.6 0.7,-1.2 1.3,-1.7 0.6,-0.5 1.2,-0.9 2,-1.1 0.7,-0.3 1.5,-0.4 2.4,-0.4 0.5,0 1,0 1.5,0.1 0.5,0.1 1,0.2 1.4,0.4 0.5,0.2 0.9,0.4 1.3,0.6 l 1.2,0.9 0.1,0.1 -0.1,0.1 -1.3,1.7 -0.1,0.1 -0.1,-0.1 c -0.3,-0.3 -0.7,-0.5 -1,-0.8 -0.3,-0.2 -0.7,-0.4 -1,-0.6 -0.3,-0.1 -0.7,-0.3 -1,-0.3 -0.3,-0.1 -0.7,-0.1 -1,-0.1 -0.6,0 -1.1,0.1 -1.5,0.2 -0.4,0.1 -0.8,0.4 -1.2,0.6 -0.3,0.3 -0.6,0.6 -0.7,1 -0.2,0.4 -0.2,0.8 -0.2,1.2 0,0.7 0.3,1.3 0.9,1.7 0.6,0.5 1.5,0.9 2.8,1.2 0.2,0.1 0.5,0.1 0.6,0.1 0.2,0.1 0.4,0.1 0.5,0.1 0.8,0.2 1.5,0.5 2,0.8 0.6,0.3 1.1,0.7 1.5,1.1 0.4,0.4 0.7,0.9 0.9,1.4 0.2,0.5 0.3,1.1 0.3,1.8 0,0.8 -0.2,1.6 -0.5,2.3 -0.3,0.7 -0.7,1.3 -1.3,1.9 -0.6,0.5 -1.3,1 -2,1.2 -0.8,0.3 -1.6,0.4 -2.5,0.4 -0.6,0 -1.2,-0.1 -1.8,-0.2 -0.6,-0.1 -1.1,-0.3 -1.6,-0.5 -0.5,-0.2 -1,-0.5 -1.5,-0.9 -0.4,-0.4 -0.9,-0.8 -1.2,-1.2 z m -9.9,2.7 0,-18.5 0.1,0 2,-0.2 0.1,0 0,3.5 c 0.3,-0.5 0.6,-1 1,-1.4 0.5,-0.5 1,-1 1.5,-1.4 0.5,-0.4 1.1,-0.6 1.7,-0.8 0.6,-0.2 1.3,-0.3 2,-0.3 l 0.7,0 -0.1,0.2 -0.8,2 0,0.1 -0.1,0 c -1,0.1 -1.9,0.4 -2.6,0.8 -0.7,0.4 -1.4,1 -1.8,1.8 -0.5,0.8 -0.8,1.8 -1.1,2.9 -0.2,1.2 -0.4,2.6 -0.4,4.1 l 0,7 -0.1,0 -2,0.2 -0.1,0 z m -4,-2.3 -1.8,1.2 c -0.6,0.3 -1.2,0.6 -1.8,0.8 -0.6,0.2 -1.2,0.4 -1.8,0.5 -0.6,0.1 -1.2,0.2 -1.9,0.2 -1.4,0 -2.7,-0.2 -3.8,-0.7 -1.2,-0.5 -2.2,-1.2 -3.1,-2.1 -0.9,-0.9 -1.6,-2 -2.1,-3.1 -0.5,-1.1 -0.7,-2.4 -0.7,-3.8 0,-1.4 0.2,-2.6 0.7,-3.8 0.5,-1.1 1.2,-2.2 2.1,-3.1 0.9,-0.9 2,-1.6 3.1,-2 1.2,-0.5 2.4,-0.7 3.8,-0.7 0.9,0 1.7,0.1 2.5,0.3 0.8,0.2 1.5,0.5 2.1,0.9 0.7,0.4 1.2,0.8 1.8,1.4 0.5,0.5 0.9,1.2 1.3,1.9 l 0.1,0.1 -0.1,0.1 -14.1,8.3 c 0.3,0.6 0.7,1.1 1.1,1.6 0.5,0.5 1,0.9 1.5,1.3 0.6,0.3 1.2,0.6 1.8,0.8 0.6,0.2 1.3,0.3 2,0.3 0.6,0 1.1,-0.1 1.7,-0.2 0.6,-0.1 1.1,-0.3 1.7,-0.5 0.6,-0.2 1.2,-0.6 1.8,-0.9 0.6,-0.4 1.3,-0.9 2,-1.4 l 0.2,-0.4 0,2.9 -0.1,0.1 z m -14.5,-5.7 11.6,-6.9 c -0.2,-0.3 -0.5,-0.5 -0.7,-0.7 -0.3,-0.2 -0.7,-0.4 -1,-0.6 -0.4,-0.2 -0.8,-0.3 -1.2,-0.4 -0.4,-0.1 -0.9,-0.1 -1.4,-0.1 -1,0 -2,0.2 -2.8,0.5 -0.9,0.4 -1.7,0.9 -2.4,1.6 -0.7,0.7 -1.2,1.5 -1.6,2.3 -0.4,0.9 -0.5,1.8 -0.5,2.8 l 0,1.5 z m -25.7,8.2 -7.9,-18.2 -0.1,-0.1 0.1,0 2,-0.7 0.1,0 0,0.1 5.9,13.8 6.5,-13.8 0.1,-0.2 0.1,0.2 6.5,13.8 6.2,-13.8 0,-0.1 0.1,0 1.9,0.6 0.1,0 -0.1,0.1 -8.2,18.3 -0.1,0.3 -0.1,-0.3 -6.6,-14.2 -6.6,14.2 -0.1,0.3 0.2,-0.3 z m -12.7,-0.2 0,-18.5 0.1,0 2.1,-0.2 0.1,0 0,18.5 -0.1,0 -2.1,0.3 -0.1,0 0,-0.1 z m -0.5,-24.1 1.5,-1.9 0.1,-0.1 0.1,0.1 1.6,1.7 0.1,0.1 -0.1,0.1 -1.6,1.9 -0.1,0.1 -0.1,-0.1 -1.5,-1.7 0,-0.2 z m -18.9,24.1 0,-18.5 0.1,0 2,-0.2 0.1,0 0,2.8 c 0.3,-0.4 0.7,-0.8 1,-1.2 0.4,-0.4 0.9,-0.8 1.4,-1.1 0.5,-0.3 1,-0.5 1.6,-0.6 0.6,-0.1 1.1,-0.2 1.8,-0.2 1,0 1.9,0.2 2.7,0.5 0.8,0.3 1.5,0.8 2,1.4 0.6,0.6 1,1.4 1.3,2.2 0.3,0.9 0.4,1.9 0.4,3 l 0,11.7 -0.1,0 -2,0.2 -0.1,0 0,-10.8 c 0,-2.1 -0.4,-3.6 -1.2,-4.6 -0.4,-0.5 -0.9,-0.9 -1.5,-1.1 -0.6,-0.3 -1.3,-0.4 -2.1,-0.4 -0.7,0 -1.4,0.1 -2,0.4 -0.6,0.3 -1.2,0.7 -1.7,1.2 -0.5,0.5 -0.9,1.1 -1.2,1.8 -0.3,0.6 -0.4,1.3 -0.4,2.1 l 0,11.2 -0.1,0 -2,0.2 -0.1,0 z m -22.4,-25.3 2.3,-0.3 0.1,0 0,16.1 c 0,1.4 0.1,2.5 0.4,3.5 0.2,0.9 0.6,1.7 1.1,2.2 0.5,0.5 1.1,0.9 1.9,1.2 0.8,0.3 1.8,0.4 2.9,0.4 1.1,0 2.1,-0.1 2.9,-0.4 0.8,-0.3 1.4,-0.7 1.9,-1.2 0.5,-0.5 0.8,-1.3 1.1,-2.2 0.2,-1 0.4,-2.1 0.4,-3.5 l 0,-15.7 0.1,0 2.3,-0.3 0.1,0 0,16.2 c 0,1 0,1.8 -0.1,2.6 -0.1,0.7 -0.2,1.4 -0.3,1.9 -0.1,0.5 -0.3,1 -0.6,1.4 -0.2,0.4 -0.5,0.9 -0.9,1.2 -0.4,0.4 -0.8,0.8 -1.3,1.1 -0.5,0.3 -1,0.6 -1.6,0.8 -0.6,0.2 -1.2,0.4 -1.9,0.5 -0.7,0.1 -1.3,0.2 -2.1,0.2 -0.7,0 -1.4,-0.1 -2.1,-0.2 -0.7,-0.1 -1.3,-0.3 -1.9,-0.5 -0.6,-0.2 -1.2,-0.5 -1.6,-0.8 -0.5,-0.3 -0.9,-0.7 -1.3,-1.1 l -0.9,-1.2 c -0.2,-0.4 -0.4,-0.9 -0.6,-1.4 -0.1,-0.5 -0.3,-1.1 -0.3,-1.9 -0.1,-0.8 -0.1,-1.6 -0.1,-2.6 l 0,-15.9 0.1,-0.1 z m 174.9,65 0,-18.5 0.1,0 2.1,-0.2 0.1,0 0,18.5 -0.1,0 -2.1,0.3 -0.1,0 0,-0.1 z m -0.5,-24.2 1.5,-1.9 0.1,-0.1 0.1,0.1 1.6,1.7 0.1,0.1 -0.1,0.1 -1.6,1.9 -0.1,0.1 -0.1,-0.1 -1.5,-1.7 0,-0.2 z m -13.3,14.5 7.8,-9.2 0.1,-0.1 0.1,0.1 1.7,1 0.1,0.1 -0.1,0.1 -6.9,8.3 7.9,8.2 0.1,0.1 -0.1,0.1 -1.6,1.2 -0.1,0.1 -0.1,-0.1 -8.9,-9.1 0,8.8 -0.1,0 -2,0.4 -0.1,0 0,-26.1 0.1,0 2,-0.2 0.1,0 0,16.3 z m -19.1,7 1.5,-1.5 0.1,-0.1 0.1,0.1 c 0.3,0.4 0.7,0.7 1,1 0.3,0.3 0.7,0.5 1.1,0.7 0.4,0.2 0.8,0.3 1.2,0.4 0.4,0.1 0.8,0.1 1.3,0.1 0.5,0 1,-0.1 1.5,-0.2 0.4,-0.2 0.8,-0.4 1.2,-0.7 0.3,-0.3 0.6,-0.6 0.8,-1 0.2,-0.4 0.3,-0.8 0.3,-1.3 0,-0.4 -0.1,-0.8 -0.2,-1.1 -0.1,-0.3 -0.3,-0.6 -0.6,-0.9 -0.3,-0.2 -0.6,-0.5 -1.1,-0.7 -0.5,-0.2 -1,-0.4 -1.7,-0.5 -1.1,-0.3 -2.1,-0.6 -2.9,-0.9 -0.8,-0.3 -1.4,-0.7 -1.8,-1.1 -0.4,-0.4 -0.8,-0.9 -1,-1.4 -0.2,-0.5 -0.3,-1.2 -0.3,-1.9 0,-0.7 0.1,-1.4 0.4,-2 0.3,-0.6 0.7,-1.2 1.3,-1.7 0.6,-0.5 1.2,-0.9 2,-1.1 0.7,-0.3 1.5,-0.4 2.4,-0.4 0.5,0 1,0 1.5,0.1 0.5,0.1 1,0.2 1.4,0.4 0.5,0.2 0.9,0.4 1.3,0.6 l 1.2,0.9 0.1,0.1 -0.1,0.1 -1.3,1.7 0.1,0 -0.1,-0.1 c -0.3,-0.3 -0.7,-0.5 -1,-0.8 -0.3,-0.2 -0.7,-0.4 -1,-0.6 -0.3,-0.2 -0.7,-0.3 -1,-0.3 -0.3,-0.1 -0.7,-0.1 -1,-0.1 -0.6,0 -1.1,0.1 -1.5,0.2 -0.4,0.1 -0.8,0.3 -1.2,0.6 -0.3,0.3 -0.6,0.6 -0.7,1 -0.2,0.4 -0.2,0.8 -0.2,1.2 0,0.7 0.3,1.3 0.9,1.7 0.6,0.5 1.5,0.9 2.8,1.2 0.2,0.1 0.5,0.1 0.6,0.2 0.2,0.1 0.4,0.1 0.5,0.1 0.8,0.2 1.5,0.5 2,0.8 0.6,0.3 1.1,0.7 1.5,1.1 0.4,0.4 0.7,0.9 0.9,1.5 0.2,0.5 0.3,1.1 0.3,1.7 0,0.8 -0.1,1.6 -0.4,2.3 -0.3,0.7 -0.7,1.3 -1.3,1.9 -0.6,0.5 -1.3,1 -2,1.2 -0.8,0.3 -1.6,0.4 -2.5,0.4 -0.6,0 -1.2,-0.1 -1.8,-0.2 -0.6,-0.1 -1.1,-0.3 -1.6,-0.5 -0.5,-0.2 -1,-0.5 -1.5,-0.9 -0.4,-0.4 -0.9,-0.8 -1.2,-1.3 l -0.3,0 z m -23.2,2.8 -7.9,-18.2 -0.1,-0.1 0.1,0 2,-0.7 0.1,0 0,0.1 5.9,13.8 6.5,-13.8 0.1,-0.2 0.1,0.2 6.5,13.8 6.2,-13.8 0,-0.1 0.1,0 1.9,0.6 0.1,0 -0.1,0.1 -8.2,18.3 -0.1,0.3 -0.1,-0.3 -6.6,-14.2 -6.6,14.2 -0.1,0.3 0.2,-0.3 z m -12.6,-1.9 -0.8,0.8 c -0.4,0.3 -0.8,0.5 -1.2,0.7 -0.4,0.2 -0.9,0.3 -1.3,0.4 -0.4,0.1 -0.9,0.1 -1.4,0.1 -0.9,0 -1.8,-0.2 -2.6,-0.5 -0.8,-0.3 -1.5,-0.8 -2.2,-1.5 -0.7,-0.7 -1.2,-1.4 -1.5,-2.2 -0.3,-0.8 -0.5,-1.7 -0.5,-2.6 0,-0.9 0.2,-1.8 0.5,-2.6 0.3,-0.8 0.8,-1.5 1.5,-2.2 0.7,-0.7 1.4,-1.2 2.2,-1.5 0.8,-0.3 1.7,-0.5 2.6,-0.5 0.5,0 0.9,0 1.4,0.1 0.4,0.1 0.9,0.2 1.3,0.4 0.4,0.2 0.8,0.4 1.2,0.7 0.3,0.2 0.6,0.4 0.8,0.7 l 0,-2 c 0,-0.6 -0.1,-1.1 -0.2,-1.6 -0.2,-0.4 -0.4,-0.8 -0.7,-1.1 -0.3,-0.3 -0.7,-0.5 -1.2,-0.6 -0.5,-0.1 -1,-0.2 -1.7,-0.2 -0.4,0 -0.8,0 -1.2,0.1 -0.4,0.1 -0.9,0.1 -1.3,0.3 -0.5,0.1 -0.9,0.3 -1.5,0.4 -0.5,0.2 -1.1,0.4 -1.6,0.6 l -0.3,0.1 0.1,-0.3 0.8,-2.4 0,-0.1 0.1,0 c 0.4,-0.2 0.9,-0.3 1.3,-0.4 0.4,-0.1 0.9,-0.2 1.3,-0.3 0.4,-0.1 0.9,-0.1 1.3,-0.2 0.4,0 0.8,-0.1 1.2,-0.1 1,0 1.9,0.1 2.6,0.4 0.7,0.2 1.3,0.6 1.8,1.1 0.5,0.5 0.8,1.1 1.1,1.8 0.2,0.7 0.3,1.6 0.3,2.6 l 0,12.9 -0.1,0 -2,0.4 -0.2,0 0,-1.7 z m -9.2,-4.7 c 0,0.7 0.1,1.2 0.3,1.8 0.2,0.5 0.5,1 1,1.5 0.4,0.4 0.9,0.8 1.5,1 0.6,0.2 1.2,0.3 1.8,0.3 0.7,0 1.3,-0.1 1.8,-0.3 0.5,-0.2 1,-0.5 1.4,-0.9 0.4,-0.4 0.7,-0.9 0.9,-1.4 0.2,-0.5 0.3,-1.2 0.3,-1.9 0,-0.7 -0.1,-1.3 -0.3,-1.8 -0.2,-0.5 -0.5,-1 -0.9,-1.5 -0.4,-0.4 -0.9,-0.7 -1.4,-0.9 -0.5,-0.2 -1.1,-0.3 -1.8,-0.3 -0.7,0 -1.3,0.1 -1.9,0.3 -0.6,0.2 -1.1,0.5 -1.5,1 -0.4,0.4 -0.8,0.9 -1,1.5 -0.1,0.3 -0.2,0.9 -0.2,1.6 m -9,6.5 0,-11.4 -1.8,1.3 -0.2,0.1 0,-2.2 0.1,0 1.9,-1.4 0,-12.1 0.1,0 2,-0.3 0.1,0 0,11.1 1.8,-1.3 0.2,-0.1 0,2.3 -0.1,0 -1.9,1.4 0,12.5 -0.1,0 -2,0.3 -0.1,0 0,-0.2 z m -4.8,-2 c -0.5,0.4 -1,0.7 -1.6,0.9 -0.6,0.3 -1.1,0.5 -1.7,0.7 -0.6,0.2 -1.2,0.3 -1.8,0.4 -0.6,0.1 -1.2,0.1 -1.8,0.1 -1.4,0 -2.6,-0.2 -3.8,-0.7 -1.2,-0.5 -2.2,-1.2 -3.1,-2.1 -0.9,-0.9 -1.6,-2 -2.1,-3.1 -0.5,-1.1 -0.7,-2.4 -0.7,-3.7 0,-1.4 0.2,-2.6 0.7,-3.8 0.5,-1.1 1.2,-2.2 2.1,-3.1 0.9,-0.9 2,-1.6 3.1,-2 1.2,-0.5 2.4,-0.7 3.8,-0.7 0.7,0 1.3,0 1.9,0.1 0.6,0.1 1.2,0.2 1.7,0.4 0.5,0.2 1.1,0.4 1.6,0.6 l 1.5,0.9 0.1,0.1 -0.1,0.1 -1.2,1.9 -0.1,0.1 -0.1,-0.1 c -0.4,-0.3 -0.9,-0.6 -1.3,-0.8 -0.4,-0.2 -0.9,-0.4 -1.3,-0.5 -0.4,-0.1 -0.8,-0.2 -1.3,-0.3 -0.4,-0.1 -0.9,-0.1 -1.4,-0.1 -1,0 -2,0.2 -2.8,0.5 -0.9,0.4 -1.7,0.9 -2.4,1.6 -0.7,0.7 -1.3,1.5 -1.6,2.4 -0.4,0.9 -0.5,1.8 -0.5,2.8 0,1 0.2,1.9 0.5,2.8 0.4,0.9 0.9,1.7 1.6,2.4 0.7,0.7 1.5,1.3 2.4,1.6 0.9,0.4 1.8,0.5 2.8,0.5 0.4,0 0.9,0 1.3,-0.1 0.4,-0.1 0.9,-0.2 1.4,-0.4 0.5,-0.2 0.9,-0.4 1.4,-0.6 0.4,-0.2 0.9,-0.5 1.3,-0.8 l 0.1,-0.1 0.1,0.1 1.3,1.7 0.1,0.1 -0.1,0.2 z m -39.2,-7.4 c 0,-1.4 0.2,-2.6 0.7,-3.7 0.5,-1.1 1.2,-2.2 2.1,-3.1 0.9,-0.9 2,-1.6 3.1,-2.1 1.2,-0.5 2.4,-0.7 3.8,-0.7 2.8,0 5.1,0.9 6.9,2.7 0.9,0.9 1.6,1.9 2.1,3.1 0.5,1.1 0.7,2.4 0.7,3.7 0,1.4 -0.2,2.6 -0.7,3.8 -0.5,1.1 -1.2,2.2 -2.1,3.1 -0.9,0.9 -2,1.6 -3.1,2.1 -1.2,0.5 -2.4,0.7 -3.8,0.7 -1.4,0 -2.6,-0.2 -3.8,-0.7 -1.2,-0.5 -2.2,-1.2 -3.1,-2.1 -0.9,-0.9 -1.6,-2 -2.1,-3.1 -0.5,-1.1 -0.7,-2.3 -0.7,-3.7 m 2.3,0 c 0,1 0.2,2 0.5,2.8 0.4,0.9 0.9,1.7 1.6,2.4 0.7,0.7 1.5,1.3 2.4,1.6 0.9,0.4 1.8,0.5 2.8,0.5 1,0 2,-0.2 2.8,-0.5 0.9,-0.4 1.7,-0.9 2.4,-1.6 0.7,-0.7 1.3,-1.5 1.6,-2.4 0.4,-0.9 0.5,-1.8 0.5,-2.8 0,-1 -0.2,-2 -0.5,-2.8 -0.4,-0.9 -0.9,-1.7 -1.6,-2.4 -0.7,-0.7 -1.5,-1.3 -2.4,-1.6 -0.9,-0.4 -1.8,-0.5 -2.8,-0.5 -1,0 -2,0.2 -2.8,0.5 -0.9,0.4 -1.7,0.9 -2.4,1.6 -0.7,0.7 -1.3,1.5 -1.6,2.4 -0.3,0.9 -0.5,1.8 -0.5,2.8 m -13,9.3 0,-18.4 0.1,0 2,-0.2 0.1,0 0,3.5 c 0.3,-0.5 0.6,-1 1,-1.4 0.5,-0.5 1,-1 1.5,-1.3 0.5,-0.4 1.1,-0.6 1.7,-0.8 0.6,-0.2 1.3,-0.3 2,-0.3 l 0.7,0 -0.1,0.2 -0.8,2 0,0.1 -0.1,0 c -1,0.1 -1.9,0.4 -2.6,0.8 -0.7,0.4 -1.4,1 -1.8,1.8 -0.5,0.8 -0.8,1.8 -1.1,2.9 -0.2,1.2 -0.4,2.6 -0.4,4.1 l 0,6.9 -0.1,0 -2,0.2 -0.1,0 0,-0.1 z m -22.8,0.4 -10.6,-25.4 -0.1,-0.1 0.2,0 2.1,-0.4 0.1,0 0,0.1 8.5,20.4 3.7,-9 -4.5,-10.9 -0.1,-0.1 0.1,0 1.9,-0.4 0.1,0 0,0.1 3.5,8.6 3.5,-8.6 0,-0.1 0.1,0 1.9,0.4 0.1,0 -0.1,0.1 -4.1,10.8 3.8,9 8.4,-20.4 0,-0.1 0.1,0 2.1,0.4 0.2,0 -0.1,0.1 -10.6,25.4 -0.1,0.3 -0.1,-0.3 -5,-11.7 -5,11.7 -0.1,0.3 0.1,-0.2 z m -53.400004,-38 c 0,1.2 8.9,-3.6 7.4,-13 -5.1,0.1 -3.3,-3.3 -0.3,-1.6 -0.6,-1.6 -0.6,-4 0.9,-3.2 0.7,0.9 0.8,2 0.1,3.3 1.6,-0.8 2.6,-0.9 2.9,-0.7 0.3,1.1 0,1.7 -2.6,2.1 0.9,7.6 -1.4,13.9 -8.5,16.3 l 0,9.1 c 2.9,5.4 8.5,11.8 13.5,3.4 -3.2,0.8 -5.6,-0.2 -6.1,-2.8 l -0.6,-3 1.7,2.2 c 3.2,1.2 5.7,1.7 8.4,-2.4 l -2.1,-0.1 -1.3,-0.6 c -2,-1 -3,-2.9 -3.1,-5.4 1.6,1.6 6.4,3.7 8.4,-0.8 -2.4,0 -3.6,-1 -4.2,-3.8 l 0,-3.7 c 1.1,0.4 2,0.3 2.8,-0.4 -3.7,-1.7 -3.7,-4.3 -4.2,-7.7 -0.7,-8.7 -11,-9.6 -10.7,-1.3 l 1.1,1.6 c -0.3,3 0.2,5.6 -3.6,5.6 l 0,6.9 z m 17,3.4 -1.3,-0.2 c -3.2,-2.2 -2.1,-6.2 -3.4,-7 -1.1,-0.1 -1.6,0.3 -1.3,1.4 l 0.1,1.8 1,2.6 c 2.3,3.3 4.7,1.5 4.9,1.4 m -3.7,7.1 c 0.2,0.1 1.3,0.4 1.3,0.4 -4.9,0.8 -6.7,-0.4 -8.1,-5.1 0.1,-4.2 2.8,-3.2 2.9,0 0.8,3 1.6,3.5 3.9,4.7 m -3.1,6.6 c -0.1,0.1 -3.8,-0.6 -4,-2.7 -0.2,-2.6 0.4,-4.9 -2.1,-6.9 -4.7,0.8 -1.1,5.9 0.2,7.4 2.6,2.4 2.1,2.4 5.7,2.6 0,0.1 0.3,-0.5 0.2,-0.4 m -38,-17.2 c 0,1.2 -8.9,-3.1 -7.4,-12.6 5.1,0.1 3.3,-3.3 0.3,-1.6 0.4,-1.6 0.6,-4 -0.9,-3.3 -0.7,1 -0.9,2.1 -0.1,3.4 -1.6,-0.8 -2.6,-0.9 -2.9,-0.7 -0.3,1.1 0,1.7 2.6,2.1 -0.9,7.6 1.3,13.6 8.4,16.1 l 0.2,9.2 c -2.9,5.6 -8.6,11.9 -13.5,3.6 3.2,0.8 5.6,-0.2 6.1,-2.8 l 0.6,-3.2 -1.7,2.2 c -3.3,1.2 -5.7,1.7 -8.4,-2.4 l 2,-0.1 1.4,-0.6 c 1.9,-1 3,-2.9 3,-5.4 -1.6,1.6 -6.4,3.8 -8.3,-0.8 2.4,0 3.6,-1 4.2,-3.8 l 0,-3.5 c -1.1,0.4 -2.1,0.3 -2.8,-0.3 3.6,-1.8 3.6,-4.3 4.1,-7.7 0.7,-8.8 11,-9.7 10.5,-1.4 l -1,1.6 c 0.3,3 -0.1,5.4 3.6,5.6 l 0,6.4 z m -16.9,3.8 1.3,-0.2 c 3.1,-2.2 2.1,-6.1 3.3,-7 1.1,-0.1 1.6,0.3 1.3,1.4 l 0,1.8 -1,2.6 c -2.3,3.3 -4.9,1.6 -4.9,1.4 m 3.6,7.1 -1.2,0.6 c 4.9,0.7 6.6,-0.6 8,-5.2 -0.1,-4.2 -2.7,-3.2 -2.9,0 -0.7,2.9 -1.5,3.4 -3.9,4.6 m 3.2,6.7 c 0.1,0.1 3.8,-0.7 3.9,-2.7 0.3,-2.6 -0.3,-4.9 2.2,-6.9 4.7,0.7 1,5.9 -0.2,7.3 -2.6,2.6 -2.1,2.6 -5.7,2.7 0,0 -0.3,-0.5 -0.2,-0.4 m 11.4,-29.3 0,44.5 -1,0.3 c -1.8,0.9 -1.7,1.9 0.3,3.1 l 0.7,0.4 c -1,3 2.4,2.8 1.3,-0.1 l 0.7,-0.3 c 2.1,-0.7 2.2,-2.1 0.3,-3.1 l -0.6,-0.4 0,-44.4 c 2.2,-0.7 3.3,-2 3.6,-3.4 0,-0.3 -0.2,-0.4 -0.4,-0.3 -1,0.2 -2.1,0.6 -3.1,0.2 -0.1,-0.1 -0.3,-1 0.2,-1.6 0.6,-0.6 1,-1.3 0.8,-1.6 -0.2,-0.1 -0.7,0 -1,0 -0.1,0 -0.3,-1.1 -0.2,-1.8 0,-0.2 0.8,-0.8 0.6,-1 -0.4,-0.4 -2,-0.2 -2,0 0,0.3 0.7,1 0.7,0.9 0,-0.1 0.1,1.9 -0.1,1.9 -0.6,0 -1.1,-0.1 -1.1,0 -0.3,0.2 0.3,1.1 0.8,1.7 0.1,0.2 0.1,1.4 0,1.4 -1.1,0.3 -2.1,0 -3.2,-0.2 -0.4,-0.1 -0.3,-0.1 -0.3,0.3 -0.2,1.9 1.2,3 3,3.5 m -1.7,-2.9 0,0.1 c -0.3,-0.1 -0.3,-0.2 -0.2,0.1 0.8,3.1 5.4,2.2 5.9,0.2 0.1,-0.7 0,-0.3 -0.4,-0.2 -1.7,0.2 -3.6,0.4 -5.3,-0.2 m 25,3.1 0,44.5 -0.9,0.3 c -1.9,0.8 -1.8,1.9 0.2,3.1 l 0.7,0.4 c -1,3 2.4,2.8 1.3,-0.1 l 0.7,-0.3 c 2.1,-0.8 2.2,-2.1 0.3,-3.2 l -0.6,-0.3 0,-44.4 c 2.2,-0.7 3.3,-2 3.6,-3.6 0,-0.2 -0.2,-0.3 -0.4,-0.2 -1,0.2 -2.1,0.6 -3.1,0.2 -0.1,-0.1 -0.3,-1 0.3,-1.6 0.4,-0.6 0.9,-1.3 0.7,-1.6 -0.2,-0.1 -0.7,0 -1,0 -0.1,0 -0.3,-1.1 -0.2,-1.8 0,-0.2 0.8,-0.8 0.6,-1 -0.4,-0.4 -2,-0.2 -2,0 0,0.3 0.7,1 0.7,0.9 0,-0.1 0.1,1.9 -0.1,1.9 -0.6,0 -1.1,-0.1 -1.1,0 -0.3,0.2 0.3,1 0.8,1.7 0.1,0.2 0.1,1.3 0,1.4 -1.1,0.3 -2.1,0 -3.2,-0.2 -0.4,-0.1 -0.3,-0.1 -0.3,0.3 -0.3,2 1.1,3.1 3,3.6 m -1.8,-2.9 c -0.3,0 -0.3,-0.2 -0.2,0.2 0.8,3.1 5.4,2.2 5.9,0.2 0.1,-0.7 0,-0.3 -0.4,-0.3 -1.6,0.3 -3.5,0.6 -5.3,-0.1 m -23.8,42.4 c -1.6,0.2 -3,-0.6 -4.2,-1 -0.1,0 -0.2,-0.1 -0.3,-0.1 -0.4,0 -0.6,0 -0.2,1.1 0.7,1.9 2.4,3.3 4.8,3.8 l 0,-3.8 z m 29.2,-0.6 c 1.6,0.2 2.9,-0.6 4.1,-1 0.1,0 0.2,-0.1 0.3,-0.1 0.3,0 0.4,0 0.1,1.1 -0.7,1.9 -2.2,3.3 -4.6,3.8 l 0,-3.8 z m -28.1,-10.6 c -1.1,0.4 -2.2,1.7 -3,4.6 l -1.2,0.7 c 0.3,1.9 3.7,0.3 4.1,-1 l 0.1,-4.3 z m 27.8,0.1 c 1.1,0.6 2.2,1.8 3,4.6 l 1.2,0.7 c -0.3,2 -3.7,0.4 -4.1,-1 l -0.1,-4.3 z m -23.7,-12.4 c 6.8,0.8 13.1,0.7 19.2,0.1 l -0.2,3.6 c -1.7,1 -0.9,2.4 0,3.6 l 0.2,7.3 c -0.3,1.8 -1,3.1 -2,4.1 -2,-2.1 -2.8,-3.9 -2.3,-5.3 0.3,-1 0.4,-2.2 -0.2,-3.7 -1.8,0.9 -2.2,4.2 -0.9,5.6 0.8,1.4 0.4,3 -0.2,4.2 1.2,2.4 2.9,3.3 5.6,4.4 l 0,4.3 -2,0.3 c -2,-0.1 -3,-0.8 -4.2,-1.4 -0.9,3.1 -0.7,4.7 -3,6.8 -2.2,-1.6 -3.7,-3.6 -3.7,-6.6 -1.2,1.6 -4,1.8 -5.7,1.2 l 0.1,-4.4 c 2.6,-0.7 4.4,-1.9 4.8,-4.7 -2.1,-1.2 -1.4,-3.1 -0.1,-4.9 0.9,-3.2 0.8,-3.8 -1.2,-5 l -0.7,2 0,2.1 0.2,1.3 -0.3,2.4 -1.1,1.4 -1.7,-2.1 -0.3,-3.3 -0.1,-5.6 c 2.1,-2 1.2,-2.7 -0.1,-5 l 0,-2.7 z m 3.3,26.2 c 0.1,-0.6 3.2,-1.8 3.8,-5.6 0.9,2.3 0.4,5.4 -4.1,7 l 0.3,-1.4 z m 6.8,-6 c 0,-0.8 3.4,5.7 0.1,10.3 l -0.1,-10.3 z m 8,4.1 c 0.1,0.2 -3.8,-1.2 -5.4,-3.8 0.8,4.2 1.8,4 5.3,5.4 l 0.1,-1.6 z m -2.9,-21.6 c -1.6,4.1 -3.6,6.3 -5.8,8.6 -3.1,-3 -4.7,-5.7 -5.4,-8.3 0.3,-0.3 1.4,1.1 2.2,1 0.4,0 1,-1.1 1.4,-1.2 0.7,0 1.2,1.6 1.8,1.3 0.7,-0.2 1.6,-1.2 2,-1.3 0.6,-0.1 1,1 1.6,1 0.9,-0.1 1.4,-1.1 2.2,-1.1 m -8.7,14.6 c 0,0 0.9,0.2 3.4,0.1 2.7,-0.1 3,-0.3 3,-0.3 1.1,0.8 -0.8,2 -3.3,2.2 -3.1,-0.6 -3.1,-2 -3.1,-2 m 0.4,-1.8 c 0,0 0.7,-0.1 2.7,-0.1 2.1,0.1 2.3,0.2 2.3,0.2 0.8,-0.4 -0.6,-1 -2.7,-1.1 -2.3,0.2 -2.3,1 -2.3,1 m -1,-10.4 1.8,-1.3 1.7,1.2 c -0.4,1.2 -1.2,2.4 -1.7,2.9 l -0.7,-0.6 c -0.6,-1.1 -1.1,-1.8 -1.1,-2.2 m 3.9,-0.2 1.8,-1.3 1.7,1.2 c -0.4,1.2 -1.1,2.4 -1.6,2.9 l -0.7,-0.7 c -0.8,-1 -1.2,-1.7 -1.2,-2.1 m -1.8,3.3 c 0,0.8 1.1,1.8 1.4,2 0.4,-0.3 1.3,-1 1.8,-2.2 l -1.7,-1.3 -1.5,1.5 z m 2.3,-37.2 c -1,0 -1.4,0.6 -1.3,0.9 0.4,0.2 1.5,0.7 2.1,0.1 0.3,-0.3 0.4,-0.3 0.8,-0.4 -0.4,-0.1 -0.9,-0.4 -1.6,-0.6 m 0.4,15.6 c -0.2,0.9 0.9,1.9 1.3,2.6 0.6,-0.7 1.1,-1.7 1.2,-2.6 -0.2,-0.3 -0.8,-0.8 -1.2,-1.3 -0.1,-0.1 -1.3,1.1 -1.3,1.3 m 2.7,0 c -0.2,0.8 0.9,1.8 1.3,2.3 0.6,-0.7 0.9,-1.2 1,-2.2 -0.2,-0.2 -0.8,-1 -1.2,-1.6 0,0 -1.1,1.2 -1.1,1.5 m -5.3,0 c -0.1,0.8 0.9,1.8 1.3,2.3 0.6,-0.6 1,-1.4 1.1,-2.4 -0.2,-0.2 -0.8,-0.8 -1.1,-1.3 0,0 -1.2,1.1 -1.3,1.4 m 6.9,2.8 c -0.2,0.8 0.9,1.3 1.3,1.9 0.6,-0.7 0.8,-1.6 1.1,-2.2 -0.2,-0.2 -0.8,-1.2 -1.3,-1.7 -0.1,-0.1 -1.1,1.8 -1.1,2 m -2.8,0.2 c -0.1,0.8 0.9,1.6 1.3,2.1 0.6,-0.6 0.8,-1.2 1.1,-2.1 -0.2,-0.2 -0.8,-1.2 -1.2,-1.8 0,0 -1,1.6 -1.2,1.8 m -1.2,2.6 c -0.2,0.7 0.9,1.3 1.3,1.9 0.6,-0.4 1.1,-0.7 1.2,-1.6 -0.2,-0.2 -0.9,-1.3 -1.4,-1.9 -0.1,-0.1 -1.1,1.3 -1.1,1.6 m -3,0.4 c 0.2,0.7 0.9,1.1 1.4,1.7 0.6,-0.4 0.9,-1.1 1.1,-2 -0.3,-0.2 -0.7,-1.1 -1.1,-1.6 0,-0.1 -1.4,1.7 -1.4,1.9 m 1.5,-3 c -0.1,0.7 0.9,1.4 1.3,2 0.6,-0.4 1,-1.1 1.1,-2 -0.2,-0.2 -0.8,-1.1 -1.2,-1.7 -0.1,0 -1.1,1.5 -1.2,1.7 m -3,-0.1 c -0.2,0.8 1,1.6 1.4,2.2 0.7,-0.6 1.2,-1.2 1.3,-2.1 -0.2,-0.3 -0.8,-1.1 -1.2,-1.7 -0.1,0 -1.5,1.4 -1.5,1.6 m -1.4,2.2 c -0.2,0.8 0.8,2.2 1.3,2.8 0.7,-0.4 1,-1.4 1.2,-2.4 -0.3,-0.2 -0.8,-0.9 -1.3,-1.4 0,-0.2 -1.2,0.7 -1.2,1 m 10.9,0.6 c -0.2,-0.8 -0.4,-1.1 -1,-1.8 -0.1,0 -1.2,1.7 -1.2,2 0.1,0.4 0.7,0.9 1.1,1.6 0.3,-0.2 0.8,-1.4 1.1,-1.8 m 2,-0.6 c 0.3,-0.3 0.9,-0.9 0.7,-1.3 -0.2,-0.4 -0.9,-1.2 -0.9,-1.1 -0.1,0.2 -0.3,0.4 -0.7,1.1 0,0.1 -0.4,0.2 0.9,1.3 m 0.1,0.6 c 0,-0.1 -1.1,-1.2 -1.1,-1.2 0,-0.1 -0.7,1.1 -0.7,1.2 -0.1,0.2 0.6,1.6 0.8,1.7 0.3,0 1.1,-1.6 1,-1.7 m -15.2,0.6 c -0.2,0.8 0.7,1.3 1.1,2 0.6,-0.7 1.4,-1.2 1.2,-1.8 -0.4,-0.8 -0.2,-0.8 -1,-1.6 -0.1,-0.1 -1.2,1 -1.3,1.4 m -1.5,-2.6 c -0.2,0.8 0.6,1.8 1.1,2.4 0.7,-0.7 0.7,-0.8 1.3,-1.6 -0.2,-0.3 -0.6,-1.4 -1.1,-1.9 -0.1,0 -1.3,0.8 -1.3,1.1 m 1.7,-1.6 c -0.2,0.8 0.9,2 1.3,2.6 0.7,-0.4 1.4,-1 1.6,-2 -0.2,-0.2 -1,-1.3 -1.6,-1.9 0,-0.1 -1.1,1 -1.3,1.3 m 1.9,-2.1 c -0.2,0.8 0.8,1.9 1.3,2.4 0.6,-0.4 1.4,-1.7 1.6,-2.4 l -1.4,-1.4 c -0.1,-0.1 -1.5,1.1 -1.5,1.4 m 0.8,-1.4 c -0.2,0.4 -0.8,0.7 -1.1,1.4 l -1.4,1.2 -0.8,1 -1.7,1.3 1.3,2.9 1.2,1.8 0.7,0.8 1.3,-1.7 1.2,1.3 c 0.6,-0.4 0.9,-1.3 1.1,-2.1 l 1.8,1.7 1,-1.3 0.6,-0.4 c 0.6,0.9 0.6,1.2 1.4,1.8 l 1.2,-1.3 1.2,1.3 c 0.6,-0.3 0.8,-1 1.3,-1.8 0.2,0.7 0.4,1.1 0.9,1.7 0.9,-1 1.4,-2.6 2,-3.9 l -0.1,-0.9 c -0.9,-1.1 -2.3,-2.9 -3.2,-3.8 -0.8,-0.7 -0.6,-1.2 -1.1,-1.8 -0.3,-0.2 -0.4,0 -0.8,0.4 -0.2,0.2 -0.4,1.1 -0.7,1 -0.3,0 -0.8,-1 -0.9,-1 -0.3,-0.7 -0.6,-0.3 -0.8,0 l -0.8,0.9 -0.6,-0.6 c -0.7,-0.7 -1,-1.6 -1.6,-0.1 l -0.7,0.9 -0.9,-0.9 c -0.5,-0.8 -0.4,-0.7 -1,0.2 m -5.5,-12.6 c 0.5,-1.4 1.2,-2.4 3.6,-2.6 l 0.8,-0.1 1.3,0.3 1.6,0.4 c 0.9,-1.1 1.8,-2 3.6,-1.6 l 1.6,0.5 c 1.6,0.7 3.1,1.2 4.7,1.1 l -1.4,1.9 c -0.5,0.9 -0.9,1.7 -1.1,2.4 -0.3,0.6 -0.4,1.3 -0.5,2.1 -0.1,2.2 0,3.9 0.9,6.1 0.8,2 2.5,3.9 4.3,5.2 l -0.2,8.2 c -4.7,1.4 -9.4,-1.6 -9.7,-1.4 -2.6,1.7 -8,1.4 -9.2,1.3 l -0.2,-8.1 c 1.4,0 5,-3.9 5.7,-5.4 0.9,-2.1 1.4,-4.2 1,-6.4 l -1.3,-1.1 c -2.1,-1 -2.6,-1.6 -2.5,-2.4 l 0.2,0.1 c 2.7,1.3 3.2,0.5 2.6,0 -1.6,-0.6 -2.3,-1.4 -5.6,-0.4 l -0.2,-0.1 z m 28.5,-9.9 c -21.4,-10.4 -47.4,-1.4 -57.8,20 -10.5,21.4 -1.5,47.4 19.9,57.9 21.4,10.4 47.3,1.4 57.800004,-20 10.4,-21.5 1.5,-47.5 -19.900004,-57.9 m 0.9,-1.8 c 22.500004,11 31.900004,38.3 20.900004,60.8 -11.000004,22.5 -38.300004,31.9 -60.800004,20.9 -22.5,-11 -31.9,-38.3 -20.9,-60.8 11,-22.5 38.3,-31.9 60.8,-20.9"
       id="path6"
       style="fill:#ffffff;fill-opacity:1"
       inkscape:connector-curvature="0" />
  </g>
</svg>
